<?xml version="1.0" encoding="UTF-8"?>
<svg id="Layer_1" data-name="Layer 1" xmlns="http://www.w3.org/2000/svg" viewBox="0 0 975.93 142.57">
  <defs>
    <style>
      .cls-1 {
        fill: #2398ff;
      }

      .cls-2 {
        fill: #b8deff;
      }

      .cls-3 {
        fill: #f80590;
        fill-rule: evenodd;
      }

      .cls-4 {
        fill: #fff;
      }
    </style>
  </defs>
  <g>
    <path class="cls-4" d="M97.67,84.05c.24-1.43.51-3.16.82-4.88.61-3.53,1.21-7.05,1.86-10.57.15-.8-.13-1.28-.67-1.8-3.52-3.39-7.01-6.82-10.5-10.24-.43-.42-.88-.88-1.14-1.41-1-1.99.22-4.2,2.51-4.56,2.17-.35,4.34-.65,6.52-.97,3.02-.43,6.04-.88,9.06-1.26.66-.09.87-.51,1.09-.99,1.2-2.45,2.41-4.9,3.61-7.35,1.05-2.12,2.11-4.22,3.14-6.35.6-1.25,1.51-1.98,2.93-2.01,1.49-.03,2.43.73,3.06,2.01,2.13,4.35,4.28,8.7,6.42,13.04.16.33.34.65.48.99.19.4.49.59.95.65,4.64.65,9.26,1.32,13.89,1.98.52.08,1.05.17,1.57.24,1.33.17,2.33.85,2.74,2.11.42,1.28.17,2.49-.86,3.47-2.54,2.47-5.07,4.95-7.6,7.43-1.19,1.16-2.39,2.34-3.6,3.48-.39.37-.5.72-.4,1.28.9,5.09,1.73,10.19,2.63,15.27.26,1.45-.12,2.59-1.27,3.43-1.13.83-2.36.73-3.57.08-4.38-2.34-8.78-4.65-13.14-7.03-.89-.48-1.54-.5-2.45,0-4.32,2.37-8.69,4.65-13.04,6.96-.77.4-1.54.71-2.45.51-1.62-.35-2.6-1.55-2.58-3.52h0Z"/>
    <path class="cls-1" d="M64.09,27.12c0-.69,0-3.42.02-4.11.02-2.41.96-4.34,2.98-5.69.81-.54,1.63-1.08,2.46-1.61,2.31-1.45,4.64-2.87,6.93-4.34,3.03-1.93,6.2-3.59,9.5-5,7.43-3.17,15.16-5.13,23.2-5.95C111.85.16,114.53,0,117.2,0s5.35.15,8.03.42c8.04.81,15.77,2.77,23.2,5.95,3.3,1.41,6.47,3.07,9.5,5,2.3,1.47,4.63,2.89,6.93,4.34.83.52,1.64,1.06,2.46,1.61,2.02,1.36,2.97,3.28,2.98,5.69.02,2.56.05,5.13.05,7.7,0,16.91-.04,33.81-.02,50.72,0,5.1-1.53,9.69-4.24,13.93-2.7,4.22-6.15,7.78-9.95,11.02-5.95,5.07-12.51,9.23-19.31,13.03-6.12,3.41-12.43,6.46-18.82,9.33-.29.13-.54.2-.8.2s-.51-.07-.8-.2c-6.39-2.87-12.69-5.92-18.82-9.33-6.81-3.8-13.36-7.95-19.31-13.03-2.55-2.18-5.8-5.38-7.92-7.95l17.09-.02c1.16,1.23,2.95,2.55,4.07,3.35,7.85,5.53,16.34,9.93,24.99,14.06.25.12.47.17.69.16.22,0,.43-.04.69-.16,8.65-4.13,17.14-8.53,24.99-14.06,3.97-2.8,7.75-5.82,10.92-9.55,1.96-2.32,3.67-4.79,4.36-7.82.12-.51.19-1.04.24-1.57.05-.52.04-1.06.04-1.59.04-17.52.09-35.04.13-52.56,0-.77-.03-1.55-.02-2.32,0-.45-.14-.75-.53-1-3.09-1.9-6.11-3.91-9.25-5.71-5.48-3.14-11.42-5.14-17.6-6.42-4.61-.96-9.26-1.5-13.96-1.46-4.69-.04-9.36.5-13.96,1.46-6.17,1.29-12.1,3.28-17.6,6.42-3.05,1.75-5.98,3.68-8.97,5.53v1.95h-12.6Z"/>
    <path class="cls-3" d="M76.81,50.89v22.57c-.45.02-.85.06-1.24.06-12.59,0-25.17.05-37.76-.02-6.39-.03-11.94-2.33-16.49-6.83-3.33-3.29-6.53-6.72-9.78-10.08-1.91-1.97-.92-4.67.94-5.38.44-.17.95-.24,1.42-.31.36-.05.73-.02,1.09-.02h61.82Z"/>
    <path class="cls-3" d="M76.69,25.18v22.59H28.13c-7.26,0-13.4-2.59-18.37-7.93-1.75-1.87-3.56-3.69-5.35-5.53-1.08-1.11-2.15-2.23-3.22-3.34-1.18-1.23-1.51-2.57-.89-3.89.67-1.41,1.84-1.95,3.37-1.95,11.16,0,22.32,0,33.47,0h25.65c.42,0,.86-.02,1.28-.03l12.59.09Z"/>
    <path class="cls-3" d="M87.35,99.28s-27.74,0-33.08,0c-6.92.02-12.77-2.52-17.59-7.46-3.02-3.1-5.99-6.22-9-9.33-.99-1.02-1.43-2.16-.96-3.56.44-1.31,1.54-2.14,2.92-2.22.25,0,.49,0,.73,0h46.39c.04.37.09.69.09,1.01,0,1.22.05,2.45,0,3.67-.11,2.45.61,4.67,1.79,6.76,1.85,3.31,4.5,5.99,7.06,8.69.69.72,1.4,1.26,2.12,1.92.2.21.32.3.53.53h-1.01Z"/>
  </g>
  <path class="cls-4" d="M226.18,91.4v34.31h-18.41V30.9h16.85v8.42c4.37-6.55,11.54-9.98,21.52-9.98s17.16,3.43,22.76,9.98c5.62,6.86,8.42,15.29,8.42,25.57s-2.81,18.71-8.42,25.57c-5.62,6.86-13.1,9.98-22.76,9.98-4.37,0-8.42-.94-12.17-2.5-3.12-1.87-5.93-4.06-7.8-6.55h0ZM230.24,50.86c-3.12,3.74-4.68,8.11-4.68,14.04,0,5.62,1.56,10.29,4.68,14.04,3.12,3.75,7.18,5.3,12.17,5.3s9.05-1.87,12.17-5.3c3.12-3.74,4.68-8.11,4.68-14.04s-1.56-10.29-4.68-14.04c-3.12-3.74-7.18-5.3-12.17-5.3s-9.05,1.56-12.17,5.3ZM307.27,18.74c-2.18,2.18-4.68,3.12-8.11,3.12s-5.93-.94-8.11-3.12c-2.18-2.18-3.12-4.68-3.12-7.8s.94-5.93,3.12-7.8c2.18-2.18,4.68-3.12,8.11-3.12s5.93.94,8.11,3.12c2.18,2.18,3.12,4.68,3.12,7.8s-.94,5.93-3.12,7.8ZM290.11,98.89V30.9h18.41v67.99h-18.41ZM344.07,98.89h-18.41V1.28h18.41v97.61ZM417.99,90.16c-6.55,6.86-15.29,10.29-25.88,10.29s-19.33-3.43-25.88-10.29c-6.55-6.86-9.98-15.29-9.98-25.26s3.43-18.41,9.98-25.26c6.55-6.86,15.29-10.29,25.88-10.29s19.33,3.43,25.88,10.29c6.55,6.86,9.98,15.29,9.98,25.26s-3.43,18.09-9.98,25.26h0ZM379.94,50.55c-3.12,3.43-4.68,8.11-4.68,14.04s1.56,10.61,4.68,14.04c3.43,3.43,7.49,5.3,12.48,5.3s9.05-1.87,12.48-5.3c3.43-3.43,4.99-8.11,4.99-14.04s-1.56-10.61-4.99-14.04c-3.12-3.43-7.18-5.3-12.48-5.3-5.3.31-9.36,1.87-12.48,5.3h0ZM472.56,82.36v15.91c-2.18.62-4.99.62-8.73.62-14.04,0-20.89-6.86-20.89-20.89v-32.75h-9.36v-14.66h9.36V13.75h18.41v16.85h11.23v14.66h-11.23v31.19c0,4.37,2.18,6.55,6.86,6.55l4.37-.62h0Z"/>
  <path class="cls-2" d="M508.74,19.36c-2.18,2.18-4.68,3.12-8.11,3.12s-5.93-.94-8.11-3.12c-2.18-2.18-3.12-4.68-3.12-7.8s.94-5.93,3.12-7.8c2.18-2.18,4.68-3.12,8.11-3.12s5.93.94,8.11,3.12c2.18,2.18,3.12,4.68,3.12,7.8s-.94,5.62-3.12,7.8ZM491.59,99.2V31.22h18.41v67.99h-18.41ZM543.98,31.22v8.42c3.43-6.55,10.29-9.98,20.27-9.98,8.11,0,14.35,2.5,18.4,7.49,4.37,4.99,6.55,11.54,6.55,19.64v42.42h-18.4v-40.23c0-9.05-3.74-13.41-11.54-13.41-4.37,0-7.8,1.25-10.29,4.06-2.5,2.5-3.74,6.24-3.74,10.92v38.67h-18.4V31.22h17.16-.01ZM629.75,100.76c-18.4,0-28.38-7.8-29.31-23.7h18.71c.31,2.5,1.25,4.68,3.12,6.24,1.87,1.56,4.68,2.5,8.42,2.5,3.43,0,6.24-.62,7.8-1.56,1.87-1.25,2.81-2.5,2.81-4.68s-1.25-3.43-3.74-4.68c-2.5-.94-5.62-1.87-9.36-2.5-3.74-.62-7.49-1.56-10.92-2.5-3.74-.94-6.86-3.12-9.36-6.24-2.5-3.12-3.74-7.18-3.74-12.17,0-6.24,2.5-11.54,7.49-15.91,4.99-4.37,11.54-6.55,19.64-6.55,9.36,0,16.22,2.5,20.58,6.86,4.37,4.37,6.86,9.98,7.18,15.91h-17.78c-.31-2.5-1.25-4.37-3.12-5.93s-4.06-2.5-7.18-2.5c-2.81,0-5.3.62-6.86,1.87-1.56,1.25-2.5,2.81-2.5,4.68,0,2.18,1.25,3.74,3.74,4.68,2.5.94,5.62,1.87,9.36,2.5,3.74.62,7.49,1.25,10.92,2.18,3.74.94,6.86,3.12,9.36,6.24,2.5,3.12,3.74,7.18,3.74,12.48,0,6.24-2.5,11.54-7.8,15.6-5.3,4.99-12.48,7.18-21.2,7.18h0ZM702.42,82.98v15.91c-2.18.62-4.99.62-8.73.62-14.04,0-20.89-6.86-20.89-20.89v-32.75h-9.36v-14.66h9.36V14.37h18.4v16.85h11.23v14.66h-11.23v31.19c0,4.37,2.18,6.55,6.86,6.55l4.37-.62h0ZM731.11,19.36c-2.18,2.18-4.68,3.12-8.11,3.12s-5.93-.94-8.11-3.12c-2.18-2.18-3.12-4.68-3.12-7.8s.94-5.93,3.12-7.8c2.18-2.18,4.68-3.12,8.11-3.12s5.93.94,8.11,3.12c2.18,2.18,3.12,4.68,3.12,7.8s-.94,5.62-3.12,7.8h0ZM713.96,99.2V31.22h18.4v67.99h-18.4ZM781.01,82.98v15.91c-2.18.62-4.99.62-8.73.62-14.04,0-20.89-6.86-20.89-20.89v-32.75h-9.36v-14.66h9.36V14.37h18.4v16.85h11.23v14.66h-10.92v31.19c0,4.37,2.18,6.55,6.86,6.55l4.06-.62h0ZM835.27,69.89V31.22h18.4v67.99h-17.16v-8.42c-3.43,6.55-10.29,9.98-19.96,9.98-8.11,0-14.04-2.5-18.4-7.18-4.37-4.99-6.24-11.54-6.24-19.96V31.22h18.4v40.23c0,9.05,3.74,13.41,11.23,13.41,4.37,0,7.8-1.25,9.98-3.74,2.5-2.81,3.74-6.24,3.74-11.23h.01ZM902.33,82.98v15.91c-2.18.62-4.99.62-8.73.62-14.04,0-20.89-6.86-20.89-20.89v-32.75h-9.36v-14.66h9.36V14.37h18.4v16.85h11.23v14.66h-11.23v31.19c0,4.37,2.18,6.55,6.86,6.55l4.37-.62h0ZM975.62,70.51h-49.28c.62,4.68,2.18,8.11,5.3,10.92,2.81,2.5,6.55,3.74,11.23,3.74,2.81,0,5.62-.62,7.8-1.87,2.5-1.25,4.06-3.12,5.3-5.62h18.4c-1.87,6.86-5.93,12.48-11.85,16.85-5.93,4.37-12.48,6.24-20.27,6.24-9.98,0-18.4-3.43-24.63-9.98-6.55-6.55-9.67-15.29-9.67-25.57s3.12-18.41,9.67-25.26c6.55-6.86,14.66-9.98,24.63-9.98s18.09,3.43,24.32,9.98c6.24,6.55,9.36,14.97,9.36,25.26l-.31,5.3h0ZM941.93,44.31c-4.06,0-7.49,1.25-10.29,3.43-2.81,2.18-4.37,5.3-5.3,9.36h30.87c-.62-3.74-2.5-6.86-4.99-9.36-2.5-2.18-5.93-3.43-10.29-3.43h-.01Z"/>
</svg>